<svg width="69" height="67" viewBox="0 0 69 67" fill="none" xmlns="http://www.w3.org/2000/svg">
<path d="M0.440741 23.6439C-0.281915 20.8704 -0.1159 18.5951 0.938788 16.8177C1.99348 15.0208 3.9173 13.7415 6.71027 12.9798L53.2337 0.470052C56.0462 -0.272135 58.3704 -0.135417 60.2064 0.880208C62.0423 1.89583 63.3118 3.80013 64.015 6.5931L64.7767 9.46419C65.1673 11.0072 65.0208 12.3841 64.3372 13.5951C63.6536 14.806 62.5013 15.6263 60.8802 16.056L28.7122 24.6693H62.9896C64.6497 24.6693 65.9681 25.1576 66.9446 26.1341C67.9212 27.1107 68.4095 28.4095 68.4095 30.0306V57.3646C68.4095 60.2357 67.6771 62.3939 66.2122 63.8392C64.7474 65.304 62.5501 66.0365 59.6204 66.0365H11.4564C8.52668 66.0365 6.31965 65.304 4.83527 63.8392C3.37043 62.3939 2.63801 60.2357 2.63801 57.3646V31.7005L0.440741 23.6439ZM8.3216 25.6947L17.6673 23.1751L19.7767 14.181L10.5189 16.7005L8.3216 25.6947ZM26.3392 20.8607L36.3294 18.224L38.4388 9.20052L28.4486 11.8665L26.3392 20.8607ZM44.9427 15.8802L54.2591 13.39L56.3392 4.45443C55.9876 4.53255 55.6263 4.61068 55.2552 4.6888C54.9036 4.76693 54.5325 4.85482 54.1419 4.95247L47.0814 6.88607L44.9427 15.8802ZM9.72785 37.3841H19.3665L23.7611 29.2396H21.5638L13.9173 29.5911L9.72785 37.3841ZM28.3314 37.3841H38.6732L43.0677 29.2396H32.6966L28.3314 37.3841ZM47.638 37.3841H57.2474L61.6419 29.2396H52.0032L47.638 37.3841Z" fill="black"/>
</svg>
