<svg width="140" height="172" viewBox="0 0 140 172" fill="none" xmlns="http://www.w3.org/2000/svg">
<path d="M135.529 58.6407C134.531 59.4147 116.922 69.3401 116.922 91.4099C116.922 116.937 139.329 125.968 140 126.192C139.897 126.742 136.44 138.56 128.186 150.601C120.825 161.197 113.138 171.776 101.445 171.776C89.7507 171.776 86.7412 164.982 73.2416 164.982C60.086 164.982 55.4084 172 44.712 172C34.0155 172 26.552 162.195 17.9708 150.154C8.03096 136.014 0 114.047 0 93.1989C0 59.7588 21.7369 42.0238 43.1298 42.0238C54.497 42.0238 63.9725 49.4894 71.1092 49.4894C77.902 49.4894 88.4953 41.5766 101.427 41.5766C106.328 41.5766 123.938 42.0238 135.529 58.6407ZM95.288 27.4195C100.636 21.0721 104.42 12.2648 104.42 3.45755C104.42 2.23622 104.316 0.9977 104.093 0C95.3912 0.326833 85.0387 5.79698 78.7962 13.0389C73.8951 18.6123 69.3207 27.4195 69.3207 36.3472C69.3207 37.689 69.5443 39.0307 69.6475 39.4607C70.1978 39.564 71.092 39.6844 71.9862 39.6844C79.7936 39.6844 89.6131 34.455 95.288 27.4195Z" fill="url(#paint0_linear_96_16)"/>
<defs>
<linearGradient id="paint0_linear_96_16" x1="2.59943e-06" y1="3.19359e-06" x2="86.5323" y2="195.648" gradientUnits="userSpaceOnUse">
<stop offset="0.403846" stop-color="#A2ABAD"/>
<stop offset="0.5" stop-color="#CDD3D4"/>
<stop offset="0.600962" stop-color="#A2ABAD"/>
</linearGradient>
</defs>
</svg>
