<svg width="192" height="184" viewBox="0 0 192 184" fill="none" xmlns="http://www.w3.org/2000/svg">
<mask id="path-1-inside-1_58_94" fill="white">
<path d="M73.061 0C81.0198 0 87.2525 1.43638 91.7593 4.30914C96.2661 7.18189 98.5195 10.9644 98.5195 15.6565C98.5195 19.1038 97.3688 22.3596 95.0675 25.4239C92.7662 28.3924 89.7936 31.1694 86.1498 33.7549C82.506 36.3404 78.5266 38.8301 74.2116 41.2241C69.9925 43.5223 65.8693 45.7247 61.8419 47.8314C57.8146 49.9381 54.3146 51.9969 51.3421 54.0078C53.4516 54.0078 55.705 54.343 58.1023 55.0133C60.5954 55.6836 63.2323 56.3539 66.0131 57.0242C68.8898 57.6945 71.8623 58.0297 74.9308 58.0297C78.8623 58.0297 82.1704 57.4551 84.8553 56.306C87.5402 55.1569 88.8827 53.4333 88.8827 51.1351C88.8827 48.6453 87.3484 46.5386 84.28 44.815L85.7183 42.9477C88.6909 44.5756 90.7525 46.4429 91.9032 48.5496C93.1497 50.5605 93.773 52.9545 93.773 55.7315C93.773 59.1788 92.91 62.5782 91.184 65.9297C89.458 69.2813 86.7252 72.0583 82.9855 74.2607C79.3417 76.3674 74.4993 77.4208 68.4583 77.4208C65.2939 77.4208 62.1775 77.0856 59.1091 76.4153C56.0406 75.745 52.8763 75.0747 49.6161 74.4044C46.4517 73.6383 42.9997 73.2074 39.26 73.1116C35.4245 72.9201 32.3081 73.1595 29.9109 73.8298C27.6095 74.4044 24.9726 75.3141 22 76.5589L22.7192 73.5426C24.4452 72.1062 26.8424 70.2389 29.9109 67.9407C33.0752 65.6425 36.5751 63.0091 40.4107 60.0406C44.2463 56.9763 48.0818 53.7205 51.9174 50.2732C55.8489 46.7302 59.4447 43.0435 62.7049 39.2131C65.9652 35.3828 68.6021 31.5046 70.6158 27.5785C72.6295 23.5566 73.6363 19.5826 73.6363 15.6565C73.6363 11.7304 72.6295 8.90555 70.6158 7.18189C68.6021 5.45824 65.9652 4.59641 62.7049 4.59641C59.7324 4.59641 56.7598 5.21884 53.7872 6.4637C50.9106 7.70856 48.2736 9.38434 45.8764 11.491C43.4792 13.502 41.5614 15.8002 40.123 18.3856C38.6847 20.9711 37.9655 23.6045 37.9655 26.2857C37.9655 28.5839 38.5888 30.3076 39.8354 31.4567C41.0819 32.6058 43.1915 33.1803 46.1641 33.1803C48.9448 33.1803 51.2941 32.7015 53.2119 31.744C55.2256 30.6906 57.3351 29.2064 59.5406 27.2912L61.2666 29.3021C58.5817 31.7918 55.8489 33.5634 53.0681 34.6167C50.2873 35.6701 47.6983 36.1967 45.3011 36.1967C43.7668 36.1967 42.1367 35.9573 40.4107 35.4785C38.7806 34.904 37.3902 33.9464 36.2395 32.6058C35.0889 31.1694 34.5135 29.1106 34.5135 26.4294C34.5135 23.2693 35.4245 20.1572 37.2464 17.0929C39.0683 13.9329 41.6573 11.0601 45.0134 8.47463C48.3695 5.88915 52.3969 3.83034 57.0954 2.29821C61.8899 0.76607 67.2117 0 73.061 0Z"/>
<path d="M154.423 0C164.395 0 172.21 2.39396 177.867 7.18189C183.621 11.9698 186.497 18.4814 186.497 26.7166C186.497 33.1325 185.059 39.4525 182.182 45.6768C179.306 51.8054 175.326 57.3594 170.244 62.3388C165.258 67.3182 159.457 71.2922 152.84 74.2607C146.32 77.1335 139.368 78.5699 131.984 78.5699C122.204 78.5699 114.389 76.1759 108.54 71.388C102.786 66.6001 99.9095 60.0885 99.9095 51.8532C99.9095 45.3417 101.348 39.0216 104.225 32.8931C107.101 26.7645 111.033 21.2105 116.019 16.2311C121.101 11.2516 126.902 7.32553 133.423 4.45277C140.039 1.48426 147.039 0 154.423 0ZM152.409 2.58548C148.286 2.58548 144.594 4.21338 141.334 7.46917C138.073 10.6292 135.293 14.8426 132.991 20.1093C130.69 25.376 128.964 31.1215 127.813 37.3458C126.663 43.5701 126.087 49.6987 126.087 55.7315C126.087 62.8176 126.854 67.9886 128.389 71.2443C130.019 74.4044 131.889 75.9844 133.998 75.9844C138.121 75.9844 141.813 74.3565 145.073 71.1007C148.334 67.8449 151.066 63.5837 153.272 58.3169C155.573 53.0502 157.299 47.3047 158.45 41.0804C159.696 34.8561 160.32 28.7754 160.32 22.8384C160.32 15.7523 159.553 10.6292 158.018 7.46917C156.484 4.21338 154.614 2.58548 152.409 2.58548Z"/>
<path d="M109.133 86.1827C117.091 86.1827 123.324 87.6191 127.831 90.4918C132.338 93.3646 134.591 97.147 134.591 101.839C134.591 105.287 133.441 108.542 131.139 111.607C128.838 114.575 125.865 117.352 122.222 119.938C118.578 122.523 114.598 125.013 110.283 127.407C106.064 129.705 101.941 131.907 97.9137 134.014C93.8863 136.121 90.3864 138.18 87.4138 140.19C89.5234 140.19 91.7768 140.526 94.174 141.196C96.6671 141.866 99.3041 142.537 102.085 143.207C104.962 143.877 107.934 144.212 111.003 144.212C114.934 144.212 118.242 143.638 120.927 142.489C123.612 141.34 124.954 139.616 124.954 137.318C124.954 134.828 123.42 132.721 120.352 130.998L121.79 129.13C124.763 130.758 126.824 132.626 127.975 134.732C129.221 136.743 129.845 139.137 129.845 141.914C129.845 145.361 128.982 148.761 127.256 152.112C125.53 155.464 122.797 158.241 119.057 160.443C115.413 162.55 110.571 163.603 104.53 163.603C101.366 163.603 98.2493 163.268 95.1808 162.598C92.1124 161.928 88.948 161.257 85.6878 160.587C82.5235 159.821 79.0714 159.39 75.3318 159.294C71.4962 159.103 68.3798 159.342 65.9826 160.012C63.6812 160.587 61.0443 161.497 58.0717 162.742L58.7909 159.725C60.5169 158.289 62.9141 156.422 65.9826 154.123C69.1469 151.825 72.6469 149.192 76.4824 146.223C80.318 143.159 84.1536 139.903 87.9891 136.456C91.9206 132.913 95.5164 129.226 98.7767 125.396C102.037 121.565 104.674 117.687 106.688 113.761C108.701 109.739 109.708 105.765 109.708 101.839C109.708 97.9131 108.701 95.0882 106.688 93.3646C104.674 91.6409 102.037 90.7791 98.7767 90.7791C95.8041 90.7791 92.8315 91.4015 89.859 92.6464C86.9823 93.8912 84.3453 95.567 81.9481 97.6737C79.5509 99.6846 77.6331 101.983 76.1948 104.568C74.7564 107.154 74.0373 109.787 74.0373 112.468C74.0373 114.767 74.6605 116.49 75.9071 117.639C77.1537 118.788 79.2632 119.363 82.2358 119.363C85.0166 119.363 87.3659 118.884 89.2836 117.927C91.2973 116.873 93.4069 115.389 95.6123 113.474L97.3383 115.485C94.6534 117.975 91.9206 119.746 89.1398 120.799C86.359 121.853 83.77 122.379 81.3728 122.379C79.8386 122.379 78.2084 122.14 76.4824 121.661C74.8523 121.087 73.4619 120.129 72.3113 118.788C71.1606 117.352 70.5853 115.293 70.5853 112.612C70.5853 109.452 71.4962 106.34 73.3181 103.276C75.14 100.116 77.729 97.2428 81.0851 94.6573C84.4412 92.0718 88.4686 90.013 93.1671 88.4809C97.9616 86.9487 103.283 86.1827 109.133 86.1827Z"/>
<path d="M190.274 85.4645L192 86.47C189.507 93.4603 186.343 99.0622 182.507 103.276C178.767 107.393 174.404 109.452 169.418 109.452C167.213 109.452 164.815 108.973 162.226 108.016C159.637 107.058 157.144 106.148 154.747 105.287C152.35 104.425 150.144 104.137 148.131 104.425L136.624 130.423C139.692 128.699 143.192 127.407 147.124 126.545C151.151 125.683 155.514 125.252 160.213 125.252C169.418 125.252 176.082 126.784 180.206 129.849C184.425 132.913 186.534 137.222 186.534 142.776C186.534 147.947 184.952 152.687 181.788 156.996C178.623 161.209 174.404 164.944 169.13 168.2C163.952 171.551 158.151 174.376 151.727 176.674C145.398 178.973 138.973 180.696 132.453 181.845C125.932 183.09 119.843 183.808 114.186 184L114.905 181.415C119.795 181.415 124.83 180.553 130.008 178.829C135.282 177.105 140.172 174.568 144.679 171.216C149.186 167.96 152.829 163.986 155.61 159.294C158.487 154.506 159.925 149.096 159.925 143.063C159.925 138.85 159.014 135.546 157.192 133.152C155.37 130.758 152.158 129.561 147.555 129.561C146.213 129.561 144.487 129.801 142.377 130.279C140.268 130.663 137.679 131.716 134.61 133.44L133.172 132.721L152.014 88.3372C154.795 88.1457 157.432 88.3851 159.925 89.0554C162.418 89.63 164.959 90.2524 167.548 90.9227C170.137 91.593 172.966 91.9282 176.034 91.9282C179.199 91.9282 181.932 91.4973 184.233 90.6354C186.534 89.6779 188.548 87.9542 190.274 85.4645Z"/>
<path d="M35 93L36.111 101.357C38.2321 117.314 45.9484 129.779 55.8263 133.205L61 135L55.8263 136.795C45.9484 140.221 38.2321 152.686 36.111 168.643L35 177L33.889 168.643C31.7679 152.686 24.0516 140.221 14.1737 136.795L9 135L14.1737 133.205C24.0516 129.779 31.7679 117.314 33.889 101.357L35 93Z"/>
<path d="M13 81L13.5555 85.1787C14.6161 93.1571 18.4742 99.3894 23.4132 101.103L26 102L23.4132 102.897C18.4742 104.611 14.6161 110.843 13.5555 118.821L13 123L12.4445 118.821C11.3839 110.843 7.52582 104.611 2.58684 102.897L0 102L2.58684 101.103C7.52582 99.3894 11.3839 93.1571 12.4445 85.1787L13 81Z"/>
</mask>
<path d="M73.061 0C81.0198 0 87.2525 1.43638 91.7593 4.30914C96.2661 7.18189 98.5195 10.9644 98.5195 15.6565C98.5195 19.1038 97.3688 22.3596 95.0675 25.4239C92.7662 28.3924 89.7936 31.1694 86.1498 33.7549C82.506 36.3404 78.5266 38.8301 74.2116 41.2241C69.9925 43.5223 65.8693 45.7247 61.8419 47.8314C57.8146 49.9381 54.3146 51.9969 51.3421 54.0078C53.4516 54.0078 55.705 54.343 58.1023 55.0133C60.5954 55.6836 63.2323 56.3539 66.0131 57.0242C68.8898 57.6945 71.8623 58.0297 74.9308 58.0297C78.8623 58.0297 82.1704 57.4551 84.8553 56.306C87.5402 55.1569 88.8827 53.4333 88.8827 51.1351C88.8827 48.6453 87.3484 46.5386 84.28 44.815L85.7183 42.9477C88.6909 44.5756 90.7525 46.4429 91.9032 48.5496C93.1497 50.5605 93.773 52.9545 93.773 55.7315C93.773 59.1788 92.91 62.5782 91.184 65.9297C89.458 69.2813 86.7252 72.0583 82.9855 74.2607C79.3417 76.3674 74.4993 77.4208 68.4583 77.4208C65.2939 77.4208 62.1775 77.0856 59.1091 76.4153C56.0406 75.745 52.8763 75.0747 49.6161 74.4044C46.4517 73.6383 42.9997 73.2074 39.26 73.1116C35.4245 72.9201 32.3081 73.1595 29.9109 73.8298C27.6095 74.4044 24.9726 75.3141 22 76.5589L22.7192 73.5426C24.4452 72.1062 26.8424 70.2389 29.9109 67.9407C33.0752 65.6425 36.5751 63.0091 40.4107 60.0406C44.2463 56.9763 48.0818 53.7205 51.9174 50.2732C55.8489 46.7302 59.4447 43.0435 62.7049 39.2131C65.9652 35.3828 68.6021 31.5046 70.6158 27.5785C72.6295 23.5566 73.6363 19.5826 73.6363 15.6565C73.6363 11.7304 72.6295 8.90555 70.6158 7.18189C68.6021 5.45824 65.9652 4.59641 62.7049 4.59641C59.7324 4.59641 56.7598 5.21884 53.7872 6.4637C50.9106 7.70856 48.2736 9.38434 45.8764 11.491C43.4792 13.502 41.5614 15.8002 40.123 18.3856C38.6847 20.9711 37.9655 23.6045 37.9655 26.2857C37.9655 28.5839 38.5888 30.3076 39.8354 31.4567C41.0819 32.6058 43.1915 33.1803 46.1641 33.1803C48.9448 33.1803 51.2941 32.7015 53.2119 31.744C55.2256 30.6906 57.3351 29.2064 59.5406 27.2912L61.2666 29.3021C58.5817 31.7918 55.8489 33.5634 53.0681 34.6167C50.2873 35.6701 47.6983 36.1967 45.3011 36.1967C43.7668 36.1967 42.1367 35.9573 40.4107 35.4785C38.7806 34.904 37.3902 33.9464 36.2395 32.6058C35.0889 31.1694 34.5135 29.1106 34.5135 26.4294C34.5135 23.2693 35.4245 20.1572 37.2464 17.0929C39.0683 13.9329 41.6573 11.0601 45.0134 8.47463C48.3695 5.88915 52.3969 3.83034 57.0954 2.29821C61.8899 0.76607 67.2117 0 73.061 0Z" fill="url(#paint0_linear_58_94)"/>
<path d="M154.423 0C164.395 0 172.21 2.39396 177.867 7.18189C183.621 11.9698 186.497 18.4814 186.497 26.7166C186.497 33.1325 185.059 39.4525 182.182 45.6768C179.306 51.8054 175.326 57.3594 170.244 62.3388C165.258 67.3182 159.457 71.2922 152.84 74.2607C146.32 77.1335 139.368 78.5699 131.984 78.5699C122.204 78.5699 114.389 76.1759 108.54 71.388C102.786 66.6001 99.9095 60.0885 99.9095 51.8532C99.9095 45.3417 101.348 39.0216 104.225 32.8931C107.101 26.7645 111.033 21.2105 116.019 16.2311C121.101 11.2516 126.902 7.32553 133.423 4.45277C140.039 1.48426 147.039 0 154.423 0ZM152.409 2.58548C148.286 2.58548 144.594 4.21338 141.334 7.46917C138.073 10.6292 135.293 14.8426 132.991 20.1093C130.69 25.376 128.964 31.1215 127.813 37.3458C126.663 43.5701 126.087 49.6987 126.087 55.7315C126.087 62.8176 126.854 67.9886 128.389 71.2443C130.019 74.4044 131.889 75.9844 133.998 75.9844C138.121 75.9844 141.813 74.3565 145.073 71.1007C148.334 67.8449 151.066 63.5837 153.272 58.3169C155.573 53.0502 157.299 47.3047 158.45 41.0804C159.696 34.8561 160.32 28.7754 160.32 22.8384C160.32 15.7523 159.553 10.6292 158.018 7.46917C156.484 4.21338 154.614 2.58548 152.409 2.58548Z" fill="url(#paint1_linear_58_94)"/>
<path d="M109.133 86.1827C117.091 86.1827 123.324 87.6191 127.831 90.4918C132.338 93.3646 134.591 97.147 134.591 101.839C134.591 105.287 133.441 108.542 131.139 111.607C128.838 114.575 125.865 117.352 122.222 119.938C118.578 122.523 114.598 125.013 110.283 127.407C106.064 129.705 101.941 131.907 97.9137 134.014C93.8863 136.121 90.3864 138.18 87.4138 140.19C89.5234 140.19 91.7768 140.526 94.174 141.196C96.6671 141.866 99.3041 142.537 102.085 143.207C104.962 143.877 107.934 144.212 111.003 144.212C114.934 144.212 118.242 143.638 120.927 142.489C123.612 141.34 124.954 139.616 124.954 137.318C124.954 134.828 123.42 132.721 120.352 130.998L121.79 129.13C124.763 130.758 126.824 132.626 127.975 134.732C129.221 136.743 129.845 139.137 129.845 141.914C129.845 145.361 128.982 148.761 127.256 152.112C125.53 155.464 122.797 158.241 119.057 160.443C115.413 162.55 110.571 163.603 104.53 163.603C101.366 163.603 98.2493 163.268 95.1808 162.598C92.1124 161.928 88.948 161.257 85.6878 160.587C82.5235 159.821 79.0714 159.39 75.3318 159.294C71.4962 159.103 68.3798 159.342 65.9826 160.012C63.6812 160.587 61.0443 161.497 58.0717 162.742L58.7909 159.725C60.5169 158.289 62.9141 156.422 65.9826 154.123C69.1469 151.825 72.6469 149.192 76.4824 146.223C80.318 143.159 84.1536 139.903 87.9891 136.456C91.9206 132.913 95.5164 129.226 98.7767 125.396C102.037 121.565 104.674 117.687 106.688 113.761C108.701 109.739 109.708 105.765 109.708 101.839C109.708 97.9131 108.701 95.0882 106.688 93.3646C104.674 91.6409 102.037 90.7791 98.7767 90.7791C95.8041 90.7791 92.8315 91.4015 89.859 92.6464C86.9823 93.8912 84.3453 95.567 81.9481 97.6737C79.5509 99.6846 77.6331 101.983 76.1948 104.568C74.7564 107.154 74.0373 109.787 74.0373 112.468C74.0373 114.767 74.6605 116.49 75.9071 117.639C77.1537 118.788 79.2632 119.363 82.2358 119.363C85.0166 119.363 87.3659 118.884 89.2836 117.927C91.2973 116.873 93.4069 115.389 95.6123 113.474L97.3383 115.485C94.6534 117.975 91.9206 119.746 89.1398 120.799C86.359 121.853 83.77 122.379 81.3728 122.379C79.8386 122.379 78.2084 122.14 76.4824 121.661C74.8523 121.087 73.4619 120.129 72.3113 118.788C71.1606 117.352 70.5853 115.293 70.5853 112.612C70.5853 109.452 71.4962 106.34 73.3181 103.276C75.14 100.116 77.729 97.2428 81.0851 94.6573C84.4412 92.0718 88.4686 90.013 93.1671 88.4809C97.9616 86.9487 103.283 86.1827 109.133 86.1827Z" fill="url(#paint2_linear_58_94)"/>
<path d="M190.274 85.4645L192 86.47C189.507 93.4603 186.343 99.0622 182.507 103.276C178.767 107.393 174.404 109.452 169.418 109.452C167.213 109.452 164.815 108.973 162.226 108.016C159.637 107.058 157.144 106.148 154.747 105.287C152.35 104.425 150.144 104.137 148.131 104.425L136.624 130.423C139.692 128.699 143.192 127.407 147.124 126.545C151.151 125.683 155.514 125.252 160.213 125.252C169.418 125.252 176.082 126.784 180.206 129.849C184.425 132.913 186.534 137.222 186.534 142.776C186.534 147.947 184.952 152.687 181.788 156.996C178.623 161.209 174.404 164.944 169.13 168.2C163.952 171.551 158.151 174.376 151.727 176.674C145.398 178.973 138.973 180.696 132.453 181.845C125.932 183.09 119.843 183.808 114.186 184L114.905 181.415C119.795 181.415 124.83 180.553 130.008 178.829C135.282 177.105 140.172 174.568 144.679 171.216C149.186 167.96 152.829 163.986 155.61 159.294C158.487 154.506 159.925 149.096 159.925 143.063C159.925 138.85 159.014 135.546 157.192 133.152C155.37 130.758 152.158 129.561 147.555 129.561C146.213 129.561 144.487 129.801 142.377 130.279C140.268 130.663 137.679 131.716 134.61 133.44L133.172 132.721L152.014 88.3372C154.795 88.1457 157.432 88.3851 159.925 89.0554C162.418 89.63 164.959 90.2524 167.548 90.9227C170.137 91.593 172.966 91.9282 176.034 91.9282C179.199 91.9282 181.932 91.4973 184.233 90.6354C186.534 89.6779 188.548 87.9542 190.274 85.4645Z" fill="url(#paint3_linear_58_94)"/>
<path d="M35 93L36.111 101.357C38.2321 117.314 45.9484 129.779 55.8263 133.205L61 135L55.8263 136.795C45.9484 140.221 38.2321 152.686 36.111 168.643L35 177L33.889 168.643C31.7679 152.686 24.0516 140.221 14.1737 136.795L9 135L14.1737 133.205C24.0516 129.779 31.7679 117.314 33.889 101.357L35 93Z" fill="url(#paint4_linear_58_94)"/>
<path d="M13 81L13.5555 85.1787C14.6161 93.1571 18.4742 99.3894 23.4132 101.103L26 102L23.4132 102.897C18.4742 104.611 14.6161 110.843 13.5555 118.821L13 123L12.4445 118.821C11.3839 110.843 7.52582 104.611 2.58684 102.897L0 102L2.58684 101.103C7.52582 99.3894 11.3839 93.1571 12.4445 85.1787L13 81Z" fill="url(#paint5_linear_58_94)"/>
<path d="M73.061 0C81.0198 0 87.2525 1.43638 91.7593 4.30914C96.2661 7.18189 98.5195 10.9644 98.5195 15.6565C98.5195 19.1038 97.3688 22.3596 95.0675 25.4239C92.7662 28.3924 89.7936 31.1694 86.1498 33.7549C82.506 36.3404 78.5266 38.8301 74.2116 41.2241C69.9925 43.5223 65.8693 45.7247 61.8419 47.8314C57.8146 49.9381 54.3146 51.9969 51.3421 54.0078C53.4516 54.0078 55.705 54.343 58.1023 55.0133C60.5954 55.6836 63.2323 56.3539 66.0131 57.0242C68.8898 57.6945 71.8623 58.0297 74.9308 58.0297C78.8623 58.0297 82.1704 57.4551 84.8553 56.306C87.5402 55.1569 88.8827 53.4333 88.8827 51.1351C88.8827 48.6453 87.3484 46.5386 84.28 44.815L85.7183 42.9477C88.6909 44.5756 90.7525 46.4429 91.9032 48.5496C93.1497 50.5605 93.773 52.9545 93.773 55.7315C93.773 59.1788 92.91 62.5782 91.184 65.9297C89.458 69.2813 86.7252 72.0583 82.9855 74.2607C79.3417 76.3674 74.4993 77.4208 68.4583 77.4208C65.2939 77.4208 62.1775 77.0856 59.1091 76.4153C56.0406 75.745 52.8763 75.0747 49.6161 74.4044C46.4517 73.6383 42.9997 73.2074 39.26 73.1116C35.4245 72.9201 32.3081 73.1595 29.9109 73.8298C27.6095 74.4044 24.9726 75.3141 22 76.5589L22.7192 73.5426C24.4452 72.1062 26.8424 70.2389 29.9109 67.9407C33.0752 65.6425 36.5751 63.0091 40.4107 60.0406C44.2463 56.9763 48.0818 53.7205 51.9174 50.2732C55.8489 46.7302 59.4447 43.0435 62.7049 39.2131C65.9652 35.3828 68.6021 31.5046 70.6158 27.5785C72.6295 23.5566 73.6363 19.5826 73.6363 15.6565C73.6363 11.7304 72.6295 8.90555 70.6158 7.18189C68.6021 5.45824 65.9652 4.59641 62.7049 4.59641C59.7324 4.59641 56.7598 5.21884 53.7872 6.4637C50.9106 7.70856 48.2736 9.38434 45.8764 11.491C43.4792 13.502 41.5614 15.8002 40.123 18.3856C38.6847 20.9711 37.9655 23.6045 37.9655 26.2857C37.9655 28.5839 38.5888 30.3076 39.8354 31.4567C41.0819 32.6058 43.1915 33.1803 46.1641 33.1803C48.9448 33.1803 51.2941 32.7015 53.2119 31.744C55.2256 30.6906 57.3351 29.2064 59.5406 27.2912L61.2666 29.3021C58.5817 31.7918 55.8489 33.5634 53.0681 34.6167C50.2873 35.6701 47.6983 36.1967 45.3011 36.1967C43.7668 36.1967 42.1367 35.9573 40.4107 35.4785C38.7806 34.904 37.3902 33.9464 36.2395 32.6058C35.0889 31.1694 34.5135 29.1106 34.5135 26.4294C34.5135 23.2693 35.4245 20.1572 37.2464 17.0929C39.0683 13.9329 41.6573 11.0601 45.0134 8.47463C48.3695 5.88915 52.3969 3.83034 57.0954 2.29821C61.8899 0.76607 67.2117 0 73.061 0Z" stroke="white" stroke-opacity="0.25" stroke-width="2" mask="url(#path-1-inside-1_58_94)"/>
<path d="M154.423 0C164.395 0 172.21 2.39396 177.867 7.18189C183.621 11.9698 186.497 18.4814 186.497 26.7166C186.497 33.1325 185.059 39.4525 182.182 45.6768C179.306 51.8054 175.326 57.3594 170.244 62.3388C165.258 67.3182 159.457 71.2922 152.84 74.2607C146.32 77.1335 139.368 78.5699 131.984 78.5699C122.204 78.5699 114.389 76.1759 108.54 71.388C102.786 66.6001 99.9095 60.0885 99.9095 51.8532C99.9095 45.3417 101.348 39.0216 104.225 32.8931C107.101 26.7645 111.033 21.2105 116.019 16.2311C121.101 11.2516 126.902 7.32553 133.423 4.45277C140.039 1.48426 147.039 0 154.423 0ZM152.409 2.58548C148.286 2.58548 144.594 4.21338 141.334 7.46917C138.073 10.6292 135.293 14.8426 132.991 20.1093C130.69 25.376 128.964 31.1215 127.813 37.3458C126.663 43.5701 126.087 49.6987 126.087 55.7315C126.087 62.8176 126.854 67.9886 128.389 71.2443C130.019 74.4044 131.889 75.9844 133.998 75.9844C138.121 75.9844 141.813 74.3565 145.073 71.1007C148.334 67.8449 151.066 63.5837 153.272 58.3169C155.573 53.0502 157.299 47.3047 158.45 41.0804C159.696 34.8561 160.32 28.7754 160.32 22.8384C160.32 15.7523 159.553 10.6292 158.018 7.46917C156.484 4.21338 154.614 2.58548 152.409 2.58548Z" stroke="white" stroke-opacity="0.25" stroke-width="2" mask="url(#path-1-inside-1_58_94)"/>
<path d="M109.133 86.1827C117.091 86.1827 123.324 87.6191 127.831 90.4918C132.338 93.3646 134.591 97.147 134.591 101.839C134.591 105.287 133.441 108.542 131.139 111.607C128.838 114.575 125.865 117.352 122.222 119.938C118.578 122.523 114.598 125.013 110.283 127.407C106.064 129.705 101.941 131.907 97.9137 134.014C93.8863 136.121 90.3864 138.18 87.4138 140.19C89.5234 140.19 91.7768 140.526 94.174 141.196C96.6671 141.866 99.3041 142.537 102.085 143.207C104.962 143.877 107.934 144.212 111.003 144.212C114.934 144.212 118.242 143.638 120.927 142.489C123.612 141.34 124.954 139.616 124.954 137.318C124.954 134.828 123.42 132.721 120.352 130.998L121.79 129.13C124.763 130.758 126.824 132.626 127.975 134.732C129.221 136.743 129.845 139.137 129.845 141.914C129.845 145.361 128.982 148.761 127.256 152.112C125.53 155.464 122.797 158.241 119.057 160.443C115.413 162.55 110.571 163.603 104.53 163.603C101.366 163.603 98.2493 163.268 95.1808 162.598C92.1124 161.928 88.948 161.257 85.6878 160.587C82.5235 159.821 79.0714 159.39 75.3318 159.294C71.4962 159.103 68.3798 159.342 65.9826 160.012C63.6812 160.587 61.0443 161.497 58.0717 162.742L58.7909 159.725C60.5169 158.289 62.9141 156.422 65.9826 154.123C69.1469 151.825 72.6469 149.192 76.4824 146.223C80.318 143.159 84.1536 139.903 87.9891 136.456C91.9206 132.913 95.5164 129.226 98.7767 125.396C102.037 121.565 104.674 117.687 106.688 113.761C108.701 109.739 109.708 105.765 109.708 101.839C109.708 97.9131 108.701 95.0882 106.688 93.3646C104.674 91.6409 102.037 90.7791 98.7767 90.7791C95.8041 90.7791 92.8315 91.4015 89.859 92.6464C86.9823 93.8912 84.3453 95.567 81.9481 97.6737C79.5509 99.6846 77.6331 101.983 76.1948 104.568C74.7564 107.154 74.0373 109.787 74.0373 112.468C74.0373 114.767 74.6605 116.49 75.9071 117.639C77.1537 118.788 79.2632 119.363 82.2358 119.363C85.0166 119.363 87.3659 118.884 89.2836 117.927C91.2973 116.873 93.4069 115.389 95.6123 113.474L97.3383 115.485C94.6534 117.975 91.9206 119.746 89.1398 120.799C86.359 121.853 83.77 122.379 81.3728 122.379C79.8386 122.379 78.2084 122.14 76.4824 121.661C74.8523 121.087 73.4619 120.129 72.3113 118.788C71.1606 117.352 70.5853 115.293 70.5853 112.612C70.5853 109.452 71.4962 106.34 73.3181 103.276C75.14 100.116 77.729 97.2428 81.0851 94.6573C84.4412 92.0718 88.4686 90.013 93.1671 88.4809C97.9616 86.9487 103.283 86.1827 109.133 86.1827Z" stroke="white" stroke-opacity="0.25" stroke-width="2" mask="url(#path-1-inside-1_58_94)"/>
<path d="M190.274 85.4645L192 86.47C189.507 93.4603 186.343 99.0622 182.507 103.276C178.767 107.393 174.404 109.452 169.418 109.452C167.213 109.452 164.815 108.973 162.226 108.016C159.637 107.058 157.144 106.148 154.747 105.287C152.35 104.425 150.144 104.137 148.131 104.425L136.624 130.423C139.692 128.699 143.192 127.407 147.124 126.545C151.151 125.683 155.514 125.252 160.213 125.252C169.418 125.252 176.082 126.784 180.206 129.849C184.425 132.913 186.534 137.222 186.534 142.776C186.534 147.947 184.952 152.687 181.788 156.996C178.623 161.209 174.404 164.944 169.13 168.2C163.952 171.551 158.151 174.376 151.727 176.674C145.398 178.973 138.973 180.696 132.453 181.845C125.932 183.09 119.843 183.808 114.186 184L114.905 181.415C119.795 181.415 124.83 180.553 130.008 178.829C135.282 177.105 140.172 174.568 144.679 171.216C149.186 167.96 152.829 163.986 155.61 159.294C158.487 154.506 159.925 149.096 159.925 143.063C159.925 138.85 159.014 135.546 157.192 133.152C155.37 130.758 152.158 129.561 147.555 129.561C146.213 129.561 144.487 129.801 142.377 130.279C140.268 130.663 137.679 131.716 134.61 133.44L133.172 132.721L152.014 88.3372C154.795 88.1457 157.432 88.3851 159.925 89.0554C162.418 89.63 164.959 90.2524 167.548 90.9227C170.137 91.593 172.966 91.9282 176.034 91.9282C179.199 91.9282 181.932 91.4973 184.233 90.6354C186.534 89.6779 188.548 87.9542 190.274 85.4645Z" stroke="white" stroke-opacity="0.25" stroke-width="2" mask="url(#path-1-inside-1_58_94)"/>
<path d="M35 93L36.111 101.357C38.2321 117.314 45.9484 129.779 55.8263 133.205L61 135L55.8263 136.795C45.9484 140.221 38.2321 152.686 36.111 168.643L35 177L33.889 168.643C31.7679 152.686 24.0516 140.221 14.1737 136.795L9 135L14.1737 133.205C24.0516 129.779 31.7679 117.314 33.889 101.357L35 93Z" stroke="white" stroke-opacity="0.25" stroke-width="2" mask="url(#path-1-inside-1_58_94)"/>
<path d="M13 81L13.5555 85.1787C14.6161 93.1571 18.4742 99.3894 23.4132 101.103L26 102L23.4132 102.897C18.4742 104.611 14.6161 110.843 13.5555 118.821L13 123L12.4445 118.821C11.3839 110.843 7.52582 104.611 2.58684 102.897L0 102L2.58684 101.103C7.52582 99.3894 11.3839 93.1571 12.4445 85.1787L13 81Z" stroke="white" stroke-opacity="0.25" stroke-width="2" mask="url(#path-1-inside-1_58_94)"/>
<defs>
<linearGradient id="paint0_linear_58_94" x1="-0.000313396" y1="2.28505e-06" x2="188.043" y2="187.959" gradientUnits="userSpaceOnUse">
<stop offset="0.302885" stop-color="#F1CB97"/>
<stop offset="0.5" stop-color="#F6E1C4"/>
<stop offset="0.697115" stop-color="#F1CB97"/>
</linearGradient>
<linearGradient id="paint1_linear_58_94" x1="-0.000313396" y1="2.28505e-06" x2="188.043" y2="187.959" gradientUnits="userSpaceOnUse">
<stop offset="0.302885" stop-color="#F1CB97"/>
<stop offset="0.5" stop-color="#F6E1C4"/>
<stop offset="0.697115" stop-color="#F1CB97"/>
</linearGradient>
<linearGradient id="paint2_linear_58_94" x1="-0.000313396" y1="2.28505e-06" x2="188.043" y2="187.959" gradientUnits="userSpaceOnUse">
<stop offset="0.302885" stop-color="#F1CB97"/>
<stop offset="0.5" stop-color="#F6E1C4"/>
<stop offset="0.697115" stop-color="#F1CB97"/>
</linearGradient>
<linearGradient id="paint3_linear_58_94" x1="-0.000313396" y1="2.28505e-06" x2="188.043" y2="187.959" gradientUnits="userSpaceOnUse">
<stop offset="0.302885" stop-color="#F1CB97"/>
<stop offset="0.5" stop-color="#F6E1C4"/>
<stop offset="0.697115" stop-color="#F1CB97"/>
</linearGradient>
<linearGradient id="paint4_linear_58_94" x1="-0.000313396" y1="2.28505e-06" x2="188.043" y2="187.959" gradientUnits="userSpaceOnUse">
<stop offset="0.302885" stop-color="#F1CB97"/>
<stop offset="0.5" stop-color="#F6E1C4"/>
<stop offset="0.697115" stop-color="#F1CB97"/>
</linearGradient>
<linearGradient id="paint5_linear_58_94" x1="-0.000313396" y1="2.28505e-06" x2="188.043" y2="187.959" gradientUnits="userSpaceOnUse">
<stop offset="0.302885" stop-color="#F1CB97"/>
<stop offset="0.5" stop-color="#F6E1C4"/>
<stop offset="0.697115" stop-color="#F1CB97"/>
</linearGradient>
</defs>
</svg>
